<svg xmlns="http://www.w3.org/2000/svg" viewBox="0 0 100 100"><g id="Layer_2" data-name="Layer 2"><g id="Layer_1-2" data-name="Layer 1"><path d="M17.37,81.16a7,7,0,0,1-2,5,6.82,6.82,0,0,1-5.09,2.09,6.86,6.86,0,0,1-5-2.09,7.18,7.18,0,0,1,0-10.13,7,7,0,0,1,5-2,7,7,0,0,1,7.13,7.13Z" style="fill:none;stroke:#000;stroke-miterlimit:10;stroke-width:2.5px"/><path d="M40.77,18.53A6.83,6.83,0,0,1,34,25.35a6.81,6.81,0,0,1-6.82-6.82A6.79,6.79,0,0,1,34,11.71a6.81,6.81,0,0,1,6.82,6.82Zm-2,17.73v51.4H29.12V36.26Z" style="fill:none;stroke:#000;stroke-miterlimit:10;stroke-width:2.5px"/><path d="M51.36,36.26H60.6v7.13H61a17.18,17.18,0,0,1,6.77-6.29,19.39,19.39,0,0,1,9.5-2.52q9.43,0,14.53,5.4t5.08,15.37V87.66H87.24V56Q86.93,43.4,74.55,43.39a12.05,12.05,0,0,0-9.65,4.67A16.91,16.91,0,0,0,61,59.23V87.66H51.36Z" style="fill:none;stroke:#000;stroke-miterlimit:10;stroke-width:2.5px"/><rect width="100" height="100" style="fill:none"/></g></g></svg>